<?xml version="1.0" encoding="utf-8"?>
<svg version="1.1" xmlns:xlink="http://www.w3.org/1999/xlink" width="29px" height="29px" xmlns="http://www.w3.org/2000/svg">
  <g transform="matrix(1 0 0 1 -41 102 )">
    <path d="M 23.958984375 18.4896171317326  C 24.5002170138889 17.2162016006922  24.7708333333333 15.8831927319922  24.7708333333333 14.4905905256327  C 24.7708333333333 12.4706900281203  24.2233072916667 10.6201600692191  23.1282552083333 8.93900064892927  L 8.892578125 23.109669046074  C 10.6169704861111 24.2262600043262  12.4861111111111 24.7845554834523  14.5 24.7845554834523  C 15.8971354166667 24.7845554834523  17.2281901041667 24.5116807268008  18.4931640625 23.9659312134977  C 19.7581380208333 23.4201817001947  20.8500434027778 22.6893791910015  21.7688802083333 21.7735236859182  C 22.6877170138889 20.857668180835  23.4177517361111 19.7630326627731  23.958984375 18.4896171317326  Z M 4.22916666666667 14.4905905256327  C 4.22916666666667 16.5230369889682  4.78927951388889 18.3986588795155  5.90950520833333 20.1174561972745  L 20.1640625 5.9279688513952  C 18.46484375 4.78628596149686  16.5768229166667 4.2154445165477  14.5 4.2154445165477  C 12.6371527777778 4.2154445165477  10.9190538194444 4.67337226908933  9.345703125 5.58922777417261  C 7.77235243055556 6.50508327925589  6.52625868055556 7.75340687865023  5.607421875 9.33419857235561  C 4.68858506944444 10.914990266061  4.22916666666667 12.63378758382  4.22916666666667 14.4905905256327  Z M 27.8483072916667 8.85431537962362  C 28.6161024305556 10.6421155094095  29 12.5208738914125  29 14.4905905256327  C 29 16.4603071598529  28.6161024305556 18.3422020333117  27.8483072916667 20.1362751460091  C 27.0805121527778 21.9303482587065  26.0515407986111 23.4735020549427  24.7613932291667 24.7657365347177  C 23.4712456597222 26.0579710144928  21.9293619791667 27.0867402119836  20.1357421875 27.8520441271901  C 18.3421223958333 28.6173480423967  16.4635416666667 29  14.5 29  C 12.5364583333333 29  10.6578776041667 28.6173480423967  8.8642578125 27.8520441271901  C 7.07063802083333 27.0867402119836  5.52875434027778 26.0579710144928  4.23860677083333 24.7657365347177  C 2.94845920138889 23.4735020549427  1.91948784722222 21.9303482587065  1.15169270833333 20.1362751460091  C 0.383897569444445 18.3422020333117  0 16.4603071598529  0 14.4905905256327  C 0 12.5208738914125  0.383897569444445 10.6421155094095  1.15169270833333 8.85431537962362  C 1.91948784722222 7.06651524983777  2.94845920138889 5.52649794505732  4.23860677083333 4.23426346528229  C 5.52875434027778 2.94202898550724  7.07063802083333 1.91325978801644  8.8642578125 1.14795587280987  C 10.6578776041667 0.382651957603285  12.5364583333333 0  14.5 0  C 16.4635416666667 0  18.3421223958333 0.382651957603285  20.1357421875 1.14795587280987  C 21.9293619791667 1.91325978801644  23.4712456597222 2.94202898550724  24.7613932291667 4.23426346528229  C 26.0515407986111 5.52649794505732  27.0805121527778 7.06651524983777  27.8483072916667 8.85431537962362  Z " fill-rule="nonzero" fill="#80d7f6" stroke="none" transform="matrix(1 0 0 1 41 -102 )" />
  </g>
</svg>