<?xml version="1.0" encoding="utf-8"?>
<!-- Generator: Adobe Illustrator 21.0.0, SVG Export Plug-In . SVG Version: 6.00 Build 0)  -->
<svg version="1.1" xmlns="http://www.w3.org/2000/svg" xmlns:xlink="http://www.w3.org/1999/xlink" x="0px" y="0px"
	 viewBox="0 0 1024 1024" style="enable-background:new 0 0 1024 1024;" xml:space="preserve">
<style type="text/css">
	.st0{display:none;}
	.st1{display:inline;}
	.st2{opacity:0.25;}
	.st3{display:inline;opacity:0.25;}
	.st4{fill:url(#SVGID_6_);}
	.st5{fill:#FF924B;}
	.st6{fill:url(#SVGID_9_);}
	.st7{fill:url(#SVGID_10_);}
	.st8{fill:url(#SVGID_11_);}
	.st9{fill:url(#SVGID_12_);}
	.st10{fill:url(#SVGID_16_);}
	.st11{fill:#FFB422;}
	.st12{enable-background:new    ;}
	.st13{clip-path:url(#SVGID_19_);fill:url(#SVGID_20_);}
	.st14{fill:url(#SVGID_21_);}
	.st15{fill:url(#SVGID_22_);}
	.st16{fill:url(#SVGID_23_);}
	.st17{fill:url(#SVGID_24_);}
	.st18{fill:url(#SVGID_25_);}
	.st19{fill:url(#SVGID_26_);}
</style>
<g id="图层_1" class="st0">
	<g id="bg">
		<g id="图层_2" class="st1">
			<g id="图标参考线">
				<g id="图标尺寸" class="st2">
					<path d="M1018.2,5.8v1012.5H5.8V5.8H1018.2 M1024,0H0v1024h1024V0z"/>
					<path d="M512,28.8c266.9,0,483.2,216.4,483.2,483.2S778.9,995.2,512,995.2S28.8,778.9,28.8,512S245.1,28.8,512,28.8 M512,23
						C241.9,23,23,241.9,23,512s218.9,489,489,489s489-218.9,489-489C1000.7,242,782,23.3,512,23z"/>
					<path d="M949.2,74.8v874.4H74.8V74.8H949.2 M955,69H69v886h886V69z"/>
					<path d="M995.2,28.8v966.5H28.8V28.8H995.2 M1001,23H23v978h978V23z"/>
					<path d="M995.2,189.8v644.3H28.8V189.8H995.2 M1001,184.1H23v655.8h978V184.1z"/>
				</g>
			</g>
		</g>
	</g>
	<g id="图标尺寸_1_" class="st3">
		<g>
			<path d="M1017.1,4.6v1010.2H6.9V4.6L1017.1,4.6 M1021.7,0h-6.9H4.6H0v6.9v1010.2v6.9h6.9h1010.2h6.9v-6.9V6.9V0H1021.7z"/>
		</g>
		<g>
			<path d="M512,27.6c266.3,0,482.2,215.8,482.2,482.2S778.3,991.9,512,991.9S29.8,776.1,29.8,509.7S245.7,27.6,512,27.6 M512,23
				c-268.6,0-489,218.1-489,486.7s218.1,486.7,489,486.7s489-218.1,489-486.7S780.6,23,512,23L512,23z"/>
		</g>
		<g>
			<path d="M948.2,73.5V946H75.8V73.5L948.2,73.5 M952.8,68.9h-6.9H73.5h-4.6v6.9v872.5v6.9h6.9h872.5h6.9v-6.9V75.8v-6.9H952.8z"/>
		</g>
		<g>
			<path d="M994.1,27.6v964.3H29.8V27.6L994.1,27.6 M998.7,23h-6.9H27.5h-4.6v6.9v964.3v6.9h6.9h964.3h6.9v-6.9V29.9V23H998.7z"/>
		</g>
		<g>
			<path d="M994.1,188.3v642.9H29.8V188.3L994.1,188.3 M998.7,183.7h-6.9H27.5h-4.6v4.6v642.9v6.9h6.9h964.3h6.9v-6.9V188.3v-4.6
				H998.7z"/>
		</g>
	</g>
</g>
<g id="图层_2_1_">
	<g>
		<g>
			<g>
				<g>
					<defs>
						<path id="SVGID_1_" d="M640.7,911.6l0,14.8c-0.1,19.4-12.8,38.7-38.2,53.5c-51.2,29.7-134.5,29.7-186,0
							c-25.9-15-38.9-34.6-38.8-54.2l0-14.8c-0.1,19.6,12.9,39.3,38.8,54.2c51.5,29.7,134.8,29.7,186,0
							C627.9,950.3,640.6,930.9,640.7,911.6z"/>
					</defs>
					<clipPath id="SVGID_2_">
						<use xlink:href="#SVGID_1_"  style="overflow:visible;"/>
					</clipPath>
				</g>
			</g>
		</g>
		<g>
			<g>
				<g>
					<defs>
						<path id="SVGID_3_" d="M640.7,911.6l0,14.8c-0.1,19.4-12.8,38.7-38.2,53.5c-51.2,29.7-134.5,29.7-186,0
							c-25.9-15-38.9-34.6-38.8-54.2l0-14.8c-0.1,19.6,12.9,39.3,38.8,54.2c51.5,29.7,134.8,29.7,186,0
							C627.9,950.3,640.6,930.9,640.7,911.6z"/>
					</defs>
					<linearGradient id="SVGID_4_" gradientUnits="userSpaceOnUse" x1="377.6141" y1="956.4913" x2="640.6628" y2="956.4913">
						<stop  offset="0" style="stop-color:#FFCB27"/>
						<stop  offset="1" style="stop-color:#FFA21E"/>
					</linearGradient>
					<use xlink:href="#SVGID_3_"  style="overflow:visible;fill:url(#SVGID_4_);"/>
					<clipPath id="SVGID_5_">
						<use xlink:href="#SVGID_3_"  style="overflow:visible;"/>
					</clipPath>
				</g>
			</g>
			<g>
				<g>
					<linearGradient id="SVGID_6_" gradientUnits="userSpaceOnUse" x1="377.656" y1="911.2" x2="640.663" y2="911.2">
						<stop  offset="0" style="stop-color:#FFA21E"/>
						<stop  offset="1" style="stop-color:#FFCB27"/>
					</linearGradient>
					<path class="st4" d="M601.8,857.3c51.5,29.7,51.8,78,0.6,107.7c-51.2,29.7-134.5,29.7-186,0c-51.5-29.7-51.8-78-0.6-107.7
						C467.1,827.6,550.3,827.6,601.8,857.3z"/>
				</g>
			</g>
		</g>
		<g>
			<g>
				<g>
					<defs>
						<path id="SVGID_7_" d="M640.7,911.6l0,14.8c-0.1,19.4-12.8,38.7-38.2,53.5c-51.2,29.7-134.5,29.7-186,0
							c-25.9-15-38.9-34.6-38.8-54.2l0-14.8c-0.1,19.6,12.9,39.3,38.8,54.2c51.5,29.7,134.8,29.7,186,0
							C627.9,950.3,640.6,930.9,640.7,911.6z"/>
					</defs>
					<clipPath id="SVGID_8_">
						<use xlink:href="#SVGID_7_"  style="overflow:visible;"/>
					</clipPath>
				</g>
			</g>
		</g>
	</g>
	<g>
		<g>
			<rect x="467.5" y="608.1" class="st5" width="83.3" height="314.2"/>
			<g>
				<path class="st5" d="M538.5,905.7c16.3,9.4,16.4,24.7,0.2,34.1c-16.2,9.4-42.6,9.4-58.9,0c-16.3-9.4-16.4-24.7-0.2-34.1
					C495.8,896.2,522.2,896.2,538.5,905.7z"/>
			</g>
		</g>
	</g>
	<g>
		<linearGradient id="SVGID_9_" gradientUnits="userSpaceOnUse" x1="699.316" y1="471.1226" x2="799.225" y2="471.1226">
			<stop  offset="0" style="stop-color:#D7D8D5"/>
			<stop  offset="1" style="stop-color:#F6F6F9"/>
		</linearGradient>
		<path class="st6" d="M798.2,438c0.1-0.6,0.2-1.2,0.3-1.8c0-0.3,0.1-0.6,0.1-0.8c0-0.1,0-0.3,0-0.4c0-0.3,0.1-0.6,0.1-0.8
			c0.1-0.6,0.1-1.2,0.2-1.7c0-0.3,0.1-0.6,0.1-0.9c0-0.6,0.1-1.2,0.1-1.8c0-0.3,0-0.5,0-0.8c0-0.8,0-1.7,0-2.5
			c0-5.5-0.7-10.2-2.1-14.4c-1.3-4.1-3.3-7.6-5.7-10.3c-0.4-0.4-0.8-0.9-1.2-1.3c-1.3-1.2-2.7-2.3-4.2-3.2l-30.3-17.6
			c2,1.2,3.8,2.7,5.4,4.4c2.5,2.8,4.4,6.2,5.7,10.3c1.3,4.1,2.1,8.9,2.1,14.4c0,0.8,0,1.7,0,2.5c0,0.3,0,0.5,0,0.8
			c0,0.6-0.1,1.2-0.1,1.8c0,0.3,0,0.6-0.1,0.9c-0.1,0.6-0.1,1.2-0.2,1.7c0,0.3-0.1,0.6-0.1,0.9c-0.1,0.4-0.1,0.8-0.2,1.2
			c-0.1,0.6-0.2,1.2-0.3,1.9c-0.1,0.4-0.1,0.8-0.2,1.2c-0.1,0.6-0.2,1.2-0.3,1.8c-0.1,0.5-0.2,0.9-0.3,1.4c-0.1,0.4-0.2,0.8-0.3,1.2
			c-0.1,0.5-0.3,1-0.4,1.5c-0.1,0.4-0.2,0.8-0.3,1.2c-0.2,0.8-0.4,1.6-0.7,2.4c-0.2,0.8-0.5,1.6-0.8,2.4c-0.1,0.3-0.2,0.7-0.3,1
			c-0.1,0.4-0.2,0.7-0.4,1.1c-0.1,0.4-0.3,0.7-0.4,1.1c-0.1,0.4-0.3,0.7-0.4,1.1c-0.1,0.2-0.2,0.4-0.2,0.6c-0.5,1.2-1,2.4-1.5,3.6
			c-0.1,0.1-0.1,0.3-0.2,0.4c-0.5,1.2-1.1,2.4-1.7,3.6c0,0.1-0.1,0.2-0.1,0.2c-0.6,1.2-1.2,2.5-1.9,3.7c0,0,0,0,0,0.1
			c-0.7,1.2-1.3,2.4-2,3.7c0,0.1-0.1,0.2-0.1,0.3c-0.7,1.2-1.4,2.4-2.2,3.6c-0.1,0.1-0.1,0.2-0.2,0.3c-0.8,1.2-1.6,2.5-2.5,3.7
			c-0.1,0.1-0.1,0.2-0.2,0.2c-0.5,0.7-0.9,1.3-1.4,2c-0.5,0.7-1,1.3-1.5,1.9c-0.1,0.2-0.2,0.3-0.4,0.5c-0.4,0.5-0.8,1.1-1.3,1.6
			c-0.2,0.2-0.4,0.5-0.6,0.7c-0.4,0.5-0.8,0.9-1.2,1.4c-0.2,0.2-0.3,0.4-0.5,0.6c-0.7,0.8-1.4,1.6-2.1,2.3c-0.1,0.1-0.3,0.3-0.4,0.4
			c-0.7,0.7-1.4,1.4-2.1,2.1c-0.1,0.1-0.2,0.2-0.3,0.3c-0.6,0.5-1.1,1.1-1.7,1.6c-4.3,4-8.8,7.4-13.5,10.1c-0.6,0.4-1.3,0.8-1.9,1.2
			c-0.1,0.1-0.2,0.1-0.3,0.2c-0.6,0.4-1.2,0.8-1.8,1.3c-0.1,0.1-0.2,0.2-0.3,0.3c-0.6,0.5-1.2,1-1.8,1.5c-0.1,0-0.1,0.1-0.2,0.1
			c-0.6,0.5-1.1,1-1.7,1.6c-0.1,0.1-0.1,0.1-0.2,0.2c0,0-0.1,0.1-0.1,0.1c-0.4,0.4-0.8,0.8-1.2,1.3c0,0,0,0-0.1,0.1
			c-0.4,0.4-0.8,0.8-1.1,1.3c0,0-0.1,0.1-0.1,0.1c0,0.1-0.1,0.1-0.1,0.2c-0.6,0.7-1.2,1.4-1.8,2.2c0,0,0,0-0.1,0.1
			c0,0.1-0.1,0.1-0.1,0.2c-0.5,0.6-0.9,1.2-1.4,1.8c0,0.1-0.1,0.1-0.1,0.2c0,0,0,0.1-0.1,0.1c-0.4,0.6-0.8,1.2-1.2,1.8
			c0,0.1-0.1,0.1-0.1,0.2c-0.1,0.1-0.1,0.2-0.2,0.3c-0.3,0.5-0.6,1-0.9,1.5c0,0.1-0.1,0.2-0.1,0.2c0,0,0,0.1-0.1,0.1
			c-0.3,0.6-0.7,1.2-1,1.8c0,0-0.1,0.1-0.1,0.1c-0.1,0.1-0.1,0.2-0.2,0.3c-0.3,0.5-0.5,1-0.7,1.5c0,0.1-0.1,0.2-0.2,0.3
			c0,0.1-0.1,0.1-0.1,0.2c-0.3,0.6-0.6,1.2-0.9,1.9c0,0,0,0,0,0.1c0,0.1-0.1,0.1-0.1,0.2c-0.2,0.6-0.5,1.1-0.7,1.7
			c0,0.1-0.1,0.2-0.1,0.3c0,0.1-0.1,0.2-0.1,0.2c-0.3,0.7-0.5,1.4-0.7,2c0,0,0,0,0,0c0,0,0,0.1,0,0.1c-0.2,0.7-0.4,1.4-0.6,2.1
			c0,0.1-0.1,0.2-0.1,0.3c0,0,0,0.1,0,0.1c-0.2,0.8-0.4,1.6-0.6,2.4c0,0.1,0,0.1-0.1,0.2c0,0.1,0,0.2-0.1,0.3
			c-0.1,0.3-0.1,0.6-0.2,1c0,0.2-0.1,0.4-0.1,0.7c-0.1,0.3-0.1,0.7-0.1,1c0,0.2,0,0.3-0.1,0.5c0,0,0,0.1,0,0.1
			c-0.1,0.7-0.2,1.4-0.2,2.1c0,0.1,0,0.3,0,0.4c0,0.7-0.1,1.4-0.1,2.1c0,7.7,2.7,13.1,7.1,15.6l30.3,17.6c-4.4-2.5-7.1-8-7.1-15.6
			c0-0.7,0-1.4,0.1-2.1c0-0.1,0-0.3,0-0.4c0-0.7,0.1-1.4,0.2-2.1c0-0.2,0.1-0.4,0.1-0.6c0-0.3,0.1-0.7,0.1-1c0-0.2,0.1-0.4,0.1-0.7
			c0.1-0.3,0.1-0.6,0.2-1c0-0.2,0.1-0.4,0.1-0.5c0.2-0.8,0.4-1.6,0.6-2.4c0-0.1,0.1-0.3,0.1-0.4c0.2-0.7,0.4-1.4,0.6-2.1
			c0-0.1,0-0.1,0.1-0.2c0.2-0.7,0.5-1.4,0.7-2c0.1-0.2,0.1-0.3,0.2-0.5c0.2-0.6,0.5-1.1,0.7-1.7c0-0.1,0.1-0.2,0.1-0.3
			c0.3-0.6,0.6-1.3,0.9-1.9c0.1-0.2,0.2-0.3,0.2-0.5c0.2-0.5,0.5-1,0.7-1.5c0.1-0.1,0.2-0.3,0.2-0.4c0.3-0.6,0.7-1.2,1-1.8
			c0.1-0.1,0.1-0.2,0.2-0.3c0.3-0.5,0.6-1,0.9-1.6c0.1-0.1,0.2-0.3,0.3-0.4c0.4-0.6,0.8-1.2,1.2-1.8c0.1-0.1,0.1-0.2,0.2-0.3
			c0.4-0.6,0.9-1.2,1.4-1.8c0.1-0.1,0.1-0.2,0.2-0.2c0.6-0.7,1.2-1.5,1.8-2.2c0.1-0.1,0.2-0.2,0.2-0.3c0.4-0.4,0.8-0.9,1.1-1.3
			c0,0,0,0,0.1-0.1c0.4-0.4,0.8-0.9,1.2-1.3c0.1-0.1,0.2-0.2,0.3-0.3c0.5-0.5,1.1-1.1,1.7-1.6c0.1,0,0.1-0.1,0.2-0.1
			c0.6-0.5,1.2-1,1.8-1.5c0.1-0.1,0.2-0.2,0.3-0.3c0.6-0.5,1.2-0.9,1.8-1.3c0.1-0.1,0.2-0.1,0.3-0.2c0.6-0.4,1.3-0.8,1.9-1.2
			c4.8-2.7,9.3-6.2,13.5-10.1c0.6-0.5,1.1-1.1,1.7-1.6c0,0,0.1,0,0.1-0.1c0.1-0.1,0.1-0.1,0.2-0.2c0.7-0.7,1.4-1.4,2.1-2.1
			c0.1-0.1,0.3-0.3,0.4-0.4c0.7-0.8,1.4-1.5,2.1-2.3c0.1-0.1,0.1-0.1,0.2-0.2c0.1-0.1,0.2-0.3,0.3-0.4c0.4-0.5,0.8-0.9,1.2-1.4
			c0.2-0.2,0.4-0.4,0.6-0.7c0.4-0.5,0.9-1.1,1.3-1.6c0.1-0.1,0.2-0.2,0.3-0.4c0,0,0.1-0.1,0.1-0.1c0.5-0.6,1-1.3,1.5-1.9
			c0.5-0.6,0.9-1.3,1.4-2c0,0,0-0.1,0.1-0.1c0,0,0.1-0.1,0.1-0.1c0.8-1.2,1.7-2.4,2.5-3.7c0,0,0-0.1,0.1-0.1c0-0.1,0.1-0.1,0.1-0.2
			c0.7-1.2,1.5-2.4,2.2-3.6c0,0,0,0,0-0.1c0-0.1,0.1-0.1,0.1-0.2c0.7-1.2,1.4-2.4,2-3.7c0,0,0,0,0,0c0,0,0,0,0,0
			c0.6-1.2,1.3-2.4,1.9-3.7c0-0.1,0.1-0.1,0.1-0.2c0,0,0,0,0-0.1c0.6-1.2,1.1-2.4,1.7-3.6c0-0.1,0.1-0.2,0.1-0.3c0,0,0-0.1,0.1-0.1
			c0.5-1.2,1-2.4,1.5-3.6c0-0.1,0.1-0.2,0.1-0.3c0-0.1,0.1-0.2,0.1-0.3c0.1-0.4,0.3-0.7,0.4-1.1c0.1-0.4,0.3-0.7,0.4-1.1
			c0.1-0.4,0.2-0.7,0.4-1.1c0.1-0.3,0.2-0.5,0.3-0.8c0-0.1,0-0.2,0.1-0.2c0.3-0.8,0.5-1.6,0.8-2.4c0.2-0.6,0.4-1.3,0.5-1.9
			c0-0.2,0.1-0.3,0.1-0.5c0.1-0.4,0.2-0.8,0.3-1.2c0.1-0.5,0.3-1,0.4-1.5c0.1-0.4,0.2-0.8,0.3-1.2c0.1-0.3,0.1-0.5,0.2-0.8
			c0-0.2,0.1-0.4,0.1-0.6c0.1-0.6,0.2-1.2,0.3-1.8C798.1,438.9,798.2,438.4,798.2,438z"/>
		<linearGradient id="SVGID_10_" gradientUnits="userSpaceOnUse" x1="698.861" y1="357.9684" x2="820.5374" y2="357.9684">
			<stop  offset="0" style="stop-color:#D7D8D5"/>
			<stop  offset="1" style="stop-color:#F6F6F9"/>
		</linearGradient>
		<path class="st7" d="M788,331.9c0.1,0,0.1,0,0.2,0c1-0.1,1.9-0.2,2.9-0.3c0.1,0,0.2,0,0.2,0c0.8-0.1,1.6-0.1,2.4-0.1
			c0.5,0,1.1,0,1.6,0c0.5,0,1,0,1.5,0c0.5,0,1,0,1.6,0.1c0.5,0,1,0,1.5,0.1c0.5,0,0.9,0.1,1.4,0.1c0.5,0.1,1,0.1,1.5,0.2
			c0.5,0.1,0.9,0.1,1.4,0.2c0.7,0.1,1.4,0.2,2.1,0.3c0.7,0.1,1.3,0.3,2,0.4c0.2,0.1,0.4,0.1,0.7,0.2c0.4,0.1,0.9,0.2,1.3,0.3
			c0.2,0,0.3,0.1,0.5,0.1c0.6,0.2,1.2,0.4,1.8,0.6c0.2,0.1,0.4,0.2,0.7,0.2c0.6,0.2,1.3,0.5,1.9,0.7c0.1,0,0.2,0.1,0.3,0.1
			c0.7,0.3,1.4,0.6,2.1,1c0.2,0.1,0.4,0.2,0.6,0.3c0.5,0.3,1.1,0.6,1.6,0.8c0.3,0.2,0.6,0.3,0.9,0.5l-30.3-17.6
			c-0.2-0.1-0.3-0.2-0.5-0.3c-0.1-0.1-0.2-0.1-0.4-0.2c-0.5-0.3-1.1-0.6-1.6-0.8c-0.2-0.1-0.4-0.2-0.6-0.3c-0.7-0.3-1.4-0.7-2.1-1
			c0,0,0,0-0.1,0c-0.1,0-0.2-0.1-0.3-0.1c-0.6-0.3-1.2-0.5-1.9-0.7c-0.2-0.1-0.4-0.2-0.7-0.2c-0.6-0.2-1.2-0.4-1.8-0.6
			c-0.1,0-0.2-0.1-0.4-0.1c0,0-0.1,0-0.1,0c-0.4-0.1-0.9-0.2-1.3-0.3c-0.2-0.1-0.4-0.1-0.7-0.2c-0.7-0.2-1.3-0.3-2-0.4
			c-0.4-0.1-0.8-0.2-1.2-0.2c-0.3,0-0.6-0.1-0.9-0.1c-0.4-0.1-0.9-0.1-1.4-0.2c-0.5-0.1-1-0.1-1.5-0.2c-0.5,0-0.9-0.1-1.4-0.1
			c-0.2,0-0.4,0-0.5,0c-0.3,0-0.6,0-0.9,0c-0.5,0-1,0-1.6-0.1c-0.5,0-1,0-1.5,0c-0.5,0-1.1,0-1.6,0c-0.2,0-0.4,0-0.6,0
			c-0.6,0-1.2,0.1-1.9,0.1c-0.1,0-0.2,0-0.2,0c-1,0.1-1.9,0.2-2.9,0.3c-0.1,0-0.1,0-0.2,0c-0.6,0.1-1.2,0.2-1.9,0.3
			c-0.3,0-0.6,0.1-0.9,0.2c-0.3,0-0.5,0.1-0.8,0.1c-1,0.2-2,0.4-2.9,0.6c-1,0.2-2.1,0.5-3.1,0.8c-0.1,0-0.2,0.1-0.3,0.1
			c-0.1,0-0.1,0-0.2,0.1c-1,0.3-1.9,0.5-2.9,0.9c-0.3,0.1-0.5,0.2-0.8,0.3c-0.8,0.3-1.6,0.5-2.4,0.8c-0.4,0.1-0.7,0.3-1.1,0.4
			c-0.7,0.3-1.5,0.5-2.2,0.8c-0.4,0.1-0.7,0.3-1.1,0.4c-0.2,0.1-0.4,0.1-0.5,0.2c-0.5,0.2-1,0.4-1.5,0.6c-0.5,0.2-1,0.4-1.5,0.6
			c-0.7,0.3-1.4,0.6-2.1,1c-0.5,0.2-0.9,0.4-1.4,0.7c-0.8,0.4-1.6,0.8-2.3,1.2c-0.4,0.2-0.8,0.4-1.2,0.6c-1.2,0.6-2.3,1.3-3.5,2
			c-0.6,0.4-1.3,0.8-1.9,1.2c-0.1,0.1-0.2,0.1-0.3,0.2c-0.6,0.4-1.2,0.8-1.8,1.3c-0.1,0.1-0.2,0.2-0.3,0.3c-0.6,0.5-1.2,1-1.8,1.5
			c-0.1,0-0.1,0.1-0.2,0.1c-0.6,0.5-1.1,1-1.7,1.6c-0.1,0.1-0.1,0.1-0.2,0.2c0,0-0.1,0.1-0.1,0.1c-0.4,0.4-0.8,0.8-1.2,1.3
			c0,0,0,0-0.1,0.1c-0.4,0.4-0.8,0.8-1.1,1.3c0,0-0.1,0.1-0.1,0.1c0,0.1-0.1,0.1-0.1,0.2c-0.6,0.7-1.2,1.4-1.8,2.2c0,0,0,0-0.1,0.1
			c0,0.1-0.1,0.1-0.1,0.2c-0.5,0.6-0.9,1.2-1.4,1.8c0,0.1-0.1,0.1-0.1,0.2c0,0,0,0.1-0.1,0.1c-0.4,0.6-0.8,1.2-1.2,1.8
			c0,0.1-0.1,0.1-0.1,0.2c-0.1,0.1-0.1,0.2-0.2,0.3c-0.3,0.5-0.6,1-0.9,1.5c0,0.1-0.1,0.2-0.1,0.2c0,0,0,0.1-0.1,0.1
			c-0.3,0.6-0.7,1.2-1,1.8c0,0-0.1,0.1-0.1,0.1c-0.1,0.1-0.1,0.2-0.2,0.3c-0.3,0.5-0.5,1-0.7,1.5c-0.1,0.1-0.1,0.2-0.2,0.3
			c0,0.1-0.1,0.1-0.1,0.2c-0.3,0.6-0.6,1.2-0.9,1.9c0,0,0,0,0,0.1c0,0.1-0.1,0.1-0.1,0.2c-0.2,0.6-0.5,1.1-0.7,1.7
			c0,0.1-0.1,0.2-0.1,0.3c0,0.1-0.1,0.2-0.1,0.2c-0.3,0.7-0.5,1.4-0.7,2c0,0,0,0,0,0c0,0,0,0.1,0,0.1c-0.2,0.7-0.4,1.4-0.6,2.1
			c0,0.1-0.1,0.2-0.1,0.3c0,0,0,0.1,0,0.1c-0.2,0.8-0.4,1.6-0.6,2.4c0,0.1,0,0.1-0.1,0.2c0,0.1,0,0.2-0.1,0.3
			c-0.1,0.3-0.1,0.6-0.2,1c0,0.2-0.1,0.4-0.1,0.7c-0.1,0.3-0.1,0.7-0.1,1c0,0.2-0.1,0.3-0.1,0.5c0,0,0,0.1,0,0.1
			c-0.1,0.7-0.2,1.4-0.2,2.1c0,0.1,0,0.3,0,0.4c0,0.7-0.1,1.4-0.1,2.1c0,4.8,1.1,8.7,2.9,11.6c0.4,0.6,0.8,1.1,1.2,1.6
			c0.4,0.5,0.9,0.9,1.4,1.3c0.5,0.4,1,0.8,1.6,1.1l30.3,17.6c-4.4-2.5-7.1-8-7.1-15.7c0-0.7,0-1.4,0.1-2.1c0-0.1,0-0.3,0-0.4
			c0-0.7,0.1-1.4,0.2-2.1c0-0.2,0.1-0.4,0.1-0.6c0-0.3,0.1-0.7,0.1-1c0-0.2,0.1-0.4,0.1-0.7c0.1-0.3,0.1-0.6,0.2-1
			c0-0.2,0.1-0.4,0.1-0.5c0.2-0.8,0.4-1.6,0.6-2.4c0-0.1,0.1-0.3,0.1-0.4c0.2-0.7,0.4-1.4,0.6-2.1c0-0.1,0-0.1,0.1-0.2
			c0.2-0.7,0.5-1.4,0.7-2c0.1-0.2,0.1-0.3,0.2-0.5c0.2-0.6,0.5-1.1,0.7-1.7c0-0.1,0.1-0.2,0.1-0.3c0.3-0.6,0.6-1.3,0.9-1.9
			c0.1-0.2,0.2-0.3,0.2-0.5c0.2-0.5,0.5-1,0.7-1.5c0.1-0.2,0.2-0.3,0.2-0.5c0.3-0.6,0.7-1.2,1-1.8c0.1-0.1,0.1-0.2,0.2-0.3
			c0.3-0.5,0.6-1,0.9-1.5c0.1-0.2,0.2-0.3,0.3-0.4c0.4-0.6,0.8-1.2,1.2-1.8c0.1-0.1,0.1-0.2,0.2-0.3c0.4-0.6,0.9-1.2,1.4-1.8
			c0.1-0.1,0.1-0.2,0.2-0.2c0.6-0.7,1.2-1.5,1.8-2.2c0.1-0.1,0.2-0.2,0.2-0.3c0.4-0.4,0.8-0.9,1.2-1.3c0,0,0,0,0.1-0.1
			c0.4-0.4,0.8-0.9,1.2-1.3c0.1-0.1,0.2-0.2,0.3-0.3c0.5-0.5,1.1-1.1,1.7-1.6c0.1,0,0.1-0.1,0.2-0.1c0.6-0.5,1.2-1,1.8-1.5
			c0.1-0.1,0.2-0.2,0.3-0.3c0.6-0.5,1.2-0.9,1.8-1.3c0.1-0.1,0.2-0.1,0.3-0.2c0.6-0.4,1.3-0.8,1.9-1.2c1.2-0.7,2.4-1.3,3.5-2
			c0.4-0.2,0.8-0.4,1.2-0.6c0.8-0.4,1.6-0.8,2.3-1.2c0.5-0.2,0.9-0.4,1.4-0.7c0.7-0.3,1.4-0.7,2.1-1c0.5-0.2,1-0.4,1.5-0.6
			c0.7-0.3,1.4-0.6,2-0.9c0.4-0.1,0.7-0.3,1.1-0.4c0.7-0.3,1.5-0.6,2.2-0.8c0.4-0.1,0.7-0.3,1.1-0.4c0.8-0.3,1.6-0.5,2.4-0.8
			c0.3-0.1,0.5-0.2,0.8-0.3c1-0.3,2.1-0.6,3.1-0.9c0.1,0,0.2-0.1,0.3-0.1c1.1-0.3,2.1-0.5,3.1-0.8c1-0.2,2-0.4,2.9-0.6
			c0.3,0,0.5-0.1,0.8-0.1C786.2,332.2,787.1,332,788,331.9z"/>
		<g>
			<linearGradient id="SVGID_11_" gradientUnits="userSpaceOnUse" x1="729.16" y1="447.8362" x2="848.0217" y2="447.8362">
				<stop  offset="0" style="stop-color:#D7D8D5"/>
				<stop  offset="1" style="stop-color:#F6F6F9"/>
			</linearGradient>
			<path class="st8" d="M753.5,344.3c9.7-5.6,19.2-9.4,28-11.3c8.9-1.9,17.2-2.1,24.7-0.6c15.1,3,27,12.6,34.2,27.9
				c4.8,10.2,7.5,23,7.5,37.9c0,11.1-1.4,22.9-4.1,34.6c-2.7,11.8-6.7,23.7-11.8,35.2c-10.1,23.1-24.4,45.1-41.3,63.1
				c-11.3,12-23.7,22.2-36.7,29.7c-13.5,7.8-24.4,1.5-24.5-13.9c0-15.5,10.8-34.3,24.3-42.1c4.8-2.7,9.3-6.2,13.5-10.1
				c4.2-4,8.2-8.5,11.8-13.4c7.2-9.8,13-21.2,16.4-32.5c2.3-7.6,3.5-15.1,3.5-22.4c0-5.5-0.7-10.2-2.1-14.4
				c-1.3-4.1-3.3-7.6-5.7-10.3c-4.9-5.5-11.9-8.1-20.1-7.4c-5.4,0.5-11.3,2.5-17.7,6.1c-13.5,7.8-24.4,1.5-24.5-14
				C729.1,371,740,352.1,753.5,344.3z"/>
		</g>
	</g>
	<linearGradient id="SVGID_12_" gradientUnits="userSpaceOnUse" x1="201.7626" y1="591.5883" x2="830.9594" y2="591.5883">
		<stop  offset="0" style="stop-color:#FFA21E"/>
		<stop  offset="1" style="stop-color:#FFCB27"/>
	</linearGradient>
	<path class="st9" d="M831,355.1c0,261.2-140.9,473-314.6,473s-314.6-211.8-314.6-473"/>
	<g>
		<defs>
			<path id="SVGID_13_" d="M823.8,329.1l-0.1,35.4c-0.1,46.3-30.6,92.6-91.4,128c-122.5,71.2-321.6,71.2-444.9,0
				c-62-35.8-93-82.8-92.9-129.8l0.1-35.4c-0.1,46.9,30.8,93.9,92.9,129.8c123.3,71.2,322.4,71.2,444.9,0
				C793.2,421.7,823.7,375.4,823.8,329.1z"/>
		</defs>
		<linearGradient id="SVGID_14_" gradientUnits="userSpaceOnUse" x1="194.4912" y1="436.5259" x2="823.7854" y2="436.5259">
			<stop  offset="0" style="stop-color:#D6D9E4"/>
			<stop  offset="1" style="stop-color:#F9F9FB"/>
		</linearGradient>
		<use xlink:href="#SVGID_13_"  style="overflow:visible;fill:url(#SVGID_14_);"/>
		<clipPath id="SVGID_15_">
			<use xlink:href="#SVGID_13_"  style="overflow:visible;"/>
		</clipPath>
	</g>
	<linearGradient id="SVGID_16_" gradientUnits="userSpaceOnUse" x1="194.5915" y1="328.1751" x2="823.7858" y2="328.1751">
		<stop  offset="0" style="stop-color:#FFA21E"/>
		<stop  offset="1" style="stop-color:#EC830D"/>
	</linearGradient>
	<path class="st10" d="M730.9,199.3c123.3,71.2,123.9,186.5,1.4,257.7s-321.6,71.2-444.9,0c-123.3-71.2-123.9-186.5-1.5-257.7
		S607.7,128.2,730.9,199.3z"/>
	<g>
		<g>
			<path class="st11" d="M508.8,154.8c40.2,0,79.3,4.4,116.4,13.1c38.2,9,72.5,22.1,101.8,39.1c29.1,16.8,51.5,36.3,66.7,57.9
				c14.3,20.4,21.6,41.8,21.6,63.6c0,21.7-7.1,43-21.2,63.2c-14.9,21.4-37.1,40.8-65.7,57.4c-29.2,16.9-63.3,30.1-101.4,39
				c-37,8.7-76.1,13.1-116.2,13.1c-40.2,0-79.3-4.4-116.4-13.1c-38.2-9-72.5-22.1-101.8-39.1c-29.1-16.8-51.5-36.3-66.7-57.9
				c-14.3-20.4-21.6-41.8-21.6-63.6c0-21.7,7.1-43,21.2-63.2c14.9-21.4,37.1-40.8,65.7-57.4c29.2-16.9,63.3-30.1,101.4-39
				C429.5,159.2,468.6,154.8,508.8,154.8L508.8,154.8 M508.8,145.7c-80.5,0-160.9,17.8-222.2,53.4
				c-122.5,71.2-121.8,186.5,1.5,257.7c61.6,35.6,142.2,53.4,222.7,53.4s160.9-17.8,222.2-53.4c122.5-71.2,121.8-186.5-1.4-257.7
				C669.9,163.5,589.3,145.7,508.8,145.7L508.8,145.7z"/>
		</g>
	</g>
	<g>
		<g class="st12">
			<defs>
				<path id="SVGID_17_" class="st12" d="M313.8,716.4l-30.6-17.8c4.2,2.4,9.2,3.5,14.8,3c5.5-0.5,11.5-2.5,17.9-6.2
					c6.8-4,13-4.3,17.5-1.7l30.6,17.8c-4.5-2.6-10.7-2.2-17.5,1.7c-6.4,3.7-12.4,5.7-17.9,6.2C323,719.9,318,718.8,313.8,716.4z"/>
			</defs>
			<linearGradient id="SVGID_18_" gradientUnits="userSpaceOnUse" x1="283.2103" y1="705.7512" x2="363.9653" y2="705.7512">
				<stop  offset="0" style="stop-color:#D7D8D5"/>
				<stop  offset="1" style="stop-color:#F6F6F9"/>
			</linearGradient>
			<use xlink:href="#SVGID_17_"  style="overflow:visible;fill:url(#SVGID_18_);"/>
			<clipPath id="SVGID_19_">
				<use xlink:href="#SVGID_17_"  style="overflow:visible;"/>
			</clipPath>
			<linearGradient id="SVGID_20_" gradientUnits="userSpaceOnUse" x1="283.2103" y1="705.7512" x2="363.9654" y2="705.7512">
				<stop  offset="0" style="stop-color:#D7D8D5"/>
				<stop  offset="1" style="stop-color:#F6F6F9"/>
			</linearGradient>
			<path class="st13" d="M333.4,693.7c0,0-0.1-0.1-0.1-0.1c-0.4-0.2-0.8-0.4-1.2-0.6c-0.4-0.2-0.9-0.3-1.3-0.5
				c-0.4-0.1-0.9-0.2-1.4-0.3c-0.5-0.1-1-0.1-1.5-0.2c-0.5,0-1.1,0-1.6,0c-0.6,0-1.2,0.1-1.8,0.2c-0.7,0.1-1.4,0.3-2.2,0.5
				c-0.9,0.3-1.9,0.6-2.9,1c-1.1,0.5-2.3,1-3.4,1.7c-2.2,1.3-4.4,2.4-6.6,3.3c-1.8,0.7-3.6,1.3-5.3,1.8c-1.4,0.4-2.7,0.7-4,0.9
				c-0.7,0.1-1.3,0.2-2,0.2c-0.5,0-1,0.1-1.4,0.1c-1,0-2,0-3,0c-0.9-0.1-1.9-0.2-2.8-0.3c-0.9-0.2-1.7-0.4-2.6-0.6
				c-0.8-0.2-1.6-0.5-2.4-0.9c-0.8-0.3-1.6-0.7-2.3-1.1c-0.1,0-0.2-0.1-0.3-0.1l30.6,17.8c0.1,0,0.2,0.1,0.3,0.1
				c0.7,0.4,1.5,0.8,2.3,1.1c0.8,0.3,1.6,0.6,2.4,0.9c0.8,0.2,1.7,0.4,2.6,0.6c0.9,0.2,1.8,0.3,2.8,0.3c1,0.1,2,0.1,3,0
				c0.5,0,1-0.1,1.4-0.1c0.6-0.1,1.3-0.1,2-0.2c1.3-0.2,2.7-0.5,4-0.9c1.7-0.5,3.5-1.1,5.3-1.8c2.1-0.9,4.3-2,6.6-3.3
				c1.2-0.7,2.3-1.2,3.4-1.7c1-0.4,2-0.7,2.9-1c0.7-0.2,1.5-0.4,2.2-0.5c0.6-0.1,1.2-0.2,1.8-0.2c0.6,0,1.1,0,1.6,0
				c0.5,0,1,0.1,1.5,0.2c0.5,0.1,0.9,0.2,1.4,0.3c0.4,0.1,0.9,0.3,1.3,0.5c0.4,0.2,0.8,0.4,1.2,0.6c0,0,0.1,0.1,0.1,0.1L333.4,693.7
				z"/>
		</g>
		<linearGradient id="SVGID_21_" gradientUnits="userSpaceOnUse" x1="220.585" y1="653.2145" x2="363.5074" y2="653.2145">
			<stop  offset="0" style="stop-color:#D7D8D5"/>
			<stop  offset="1" style="stop-color:#F6F6F9"/>
		</linearGradient>
		<path class="st14" d="M313.7,576.3c0.2-0.2,0.5-0.4,0.7-0.7c1.1-1.1,2.3-2.2,3.4-3.3c0.1,0,0.1-0.1,0.2-0.1c1.1-1,2.2-2.1,3.4-3.1
			c0.2-0.2,0.4-0.3,0.5-0.5c1.1-1,2.3-2,3.4-2.9c0.2-0.2,0.4-0.4,0.7-0.6c1.2-1,2.3-1.9,3.5-2.8c0.2-0.1,0.3-0.2,0.5-0.3
			c1.1-0.9,2.3-1.8,3.4-2.6c0.1-0.1,0.3-0.2,0.4-0.3c1.2-0.9,2.4-1.7,3.6-2.5c0.2-0.2,0.5-0.3,0.7-0.5c1.2-0.8,2.4-1.6,3.6-2.3
			c0.2-0.1,0.4-0.3,0.6-0.4c1.3-0.8,2.5-1.5,3.8-2.3c0.5-0.3,1-0.6,1.6-0.8c0.1-0.1,0.3-0.1,0.4-0.2c0.4-0.2,0.8-0.4,1.2-0.5
			c0.1-0.1,0.3-0.1,0.4-0.2c0.4-0.2,0.7-0.3,1.1-0.4c0.1,0,0.2-0.1,0.3-0.1c0.4-0.2,0.9-0.3,1.3-0.4c0.3-0.1,0.5-0.1,0.8-0.2
			c0.1,0,0.2-0.1,0.4-0.1c0.4-0.1,0.7-0.2,1.1-0.2c0,0,0,0,0,0c0.3-0.1,0.7-0.1,1-0.1c0.1,0,0.2,0,0.3,0c0.2,0,0.4,0,0.6,0
			c0.5,0,1,0,1.4,0c0.1,0,0.2,0,0.2,0c0.4,0,0.7,0.1,1.1,0.1c0.1,0,0.2,0,0.3,0.1c0.4,0.1,0.8,0.2,1.2,0.3c0,0,0,0,0.1,0
			c0.4,0.1,0.7,0.2,1.1,0.4c0.1,0,0.2,0.1,0.3,0.1c0.3,0.1,0.6,0.3,0.9,0.4c0.1,0.1,0.2,0.1,0.3,0.2l-30.6-17.8c0,0-0.1-0.1-0.1-0.1
			c-0.1,0-0.1-0.1-0.2-0.1c-0.3-0.2-0.6-0.3-0.9-0.4c-0.1,0-0.1-0.1-0.2-0.1c0,0-0.1,0-0.1-0.1c-0.4-0.1-0.7-0.3-1.1-0.4
			c0,0,0,0,0,0l0,0c-0.4-0.1-0.8-0.2-1.2-0.3c0,0-0.1,0-0.1,0c-0.1,0-0.1,0-0.2,0c-0.4-0.1-0.7-0.1-1.1-0.1c-0.1,0-0.1,0-0.2,0
			c0,0,0,0-0.1,0c-0.5,0-0.9,0-1.4,0c0,0-0.1,0-0.1,0c-0.2,0-0.3,0-0.5,0c-0.1,0-0.2,0-0.3,0c-0.3,0-0.7,0.1-1,0.1c0,0,0,0,0,0l0,0
			c-0.4,0.1-0.7,0.1-1.1,0.2c-0.1,0-0.2,0.1-0.4,0.1c-0.2,0.1-0.5,0.1-0.7,0.2c0,0,0,0-0.1,0c-0.4,0.1-0.9,0.3-1.3,0.4
			c-0.1,0-0.2,0.1-0.3,0.1c-0.4,0.1-0.7,0.3-1.1,0.4c0,0-0.1,0-0.1,0.1c-0.1,0-0.2,0.1-0.3,0.1c-0.4,0.2-0.8,0.3-1.2,0.5
			c-0.1,0.1-0.3,0.1-0.4,0.2c-0.5,0.3-1,0.5-1.6,0.8c-1.3,0.7-2.5,1.5-3.8,2.3c-0.2,0.1-0.4,0.3-0.6,0.4c-1.2,0.8-2.4,1.5-3.6,2.3
			c-0.2,0.2-0.5,0.3-0.7,0.5c-1.2,0.8-2.4,1.7-3.6,2.5c-0.1,0.1-0.3,0.2-0.4,0.3c-1.2,0.8-2.3,1.7-3.4,2.6c-0.2,0.1-0.3,0.2-0.5,0.3
			c-1.2,0.9-2.3,1.8-3.5,2.8c-0.2,0.2-0.5,0.4-0.7,0.6c-1.1,1-2.3,1.9-3.4,2.9c-0.2,0.2-0.4,0.3-0.5,0.5c-1.1,1-2.3,2-3.4,3.1
			c-0.1,0-0.1,0.1-0.2,0.1c-1.1,1.1-2.3,2.2-3.4,3.3c-0.1,0.1-0.2,0.2-0.4,0.3c-0.1,0.1-0.2,0.2-0.3,0.3c-0.5,0.5-1.1,1.1-1.6,1.6
			c-0.3,0.3-0.5,0.5-0.8,0.8c-0.8,0.8-1.6,1.6-2.3,2.5c-1,1.1-2,2.1-2.9,3.2c-0.3,0.4-0.6,0.7-0.9,1.1c-0.5,0.5-0.9,1.1-1.4,1.6
			c-0.1,0.2-0.3,0.3-0.4,0.5c-1,1.2-2,2.4-3,3.6c-0.2,0.2-0.3,0.4-0.5,0.6c-1.2,1.4-2.3,2.8-3.4,4.3c-0.1,0.1-0.2,0.2-0.3,0.3
			c-0.3,0.4-0.6,0.8-0.9,1.2c-0.6,0.8-1.3,1.6-1.9,2.5c-0.4,0.6-0.8,1.1-1.2,1.7c-0.6,0.8-1.2,1.6-1.8,2.4c-0.2,0.3-0.4,0.5-0.6,0.8
			c-0.3,0.4-0.5,0.7-0.7,1.1c-0.5,0.7-1,1.4-1.4,2.1c-0.4,0.6-0.9,1.3-1.3,1.9c-0.5,0.7-0.9,1.4-1.4,2.1c-0.2,0.3-0.4,0.6-0.6,1
			c-0.2,0.4-0.4,0.7-0.7,1.1c-0.4,0.6-0.8,1.3-1.2,2c-0.4,0.7-0.9,1.4-1.3,2.1c-0.4,0.7-0.8,1.3-1.2,2c-0.2,0.3-0.4,0.6-0.6,0.9
			c-0.2,0.4-0.5,0.8-0.7,1.2c-0.4,0.6-0.7,1.3-1.1,1.9c-0.4,0.7-0.8,1.5-1.2,2.2c-0.3,0.6-0.7,1.3-1,1.9c-0.1,0.3-0.3,0.5-0.4,0.8
			c-0.3,0.5-0.5,1-0.8,1.5c-0.3,0.6-0.6,1.2-1,1.9c-0.4,0.8-0.8,1.6-1.2,2.4c-0.3,0.6-0.6,1.2-0.9,1.8c-0.1,0.2-0.2,0.3-0.3,0.5
			c-0.4,0.7-0.7,1.5-1,2.2c-0.2,0.4-0.4,0.9-0.6,1.3c-0.6,1.4-1.3,2.7-1.9,4.1c-0.1,0.2-0.2,0.4-0.2,0.5c-0.3,0.7-0.6,1.5-0.9,2.2
			c-0.3,0.6-0.5,1.2-0.8,1.8c-0.4,0.9-0.7,1.8-1.1,2.7c-0.2,0.5-0.4,1.1-0.7,1.6c0,0,0,0.1,0,0.1c-0.2,0.6-0.5,1.3-0.7,1.9
			c-0.3,0.8-0.6,1.6-0.9,2.4c-0.2,0.7-0.5,1.4-0.7,2.1c-0.3,0.8-0.6,1.6-0.8,2.4c0,0.1,0,0.1-0.1,0.2c-0.1,0.4-0.3,0.9-0.4,1.3
			c-0.3,1.1-0.7,2.1-1,3.2c-0.2,0.6-0.4,1.2-0.5,1.8c-0.3,0.9-0.6,1.9-0.8,2.8c0,0.2-0.1,0.3-0.1,0.5c-0.2,0.8-0.4,1.5-0.6,2.3
			c-0.1,0.5-0.3,0.9-0.4,1.4c-0.4,1.4-0.7,2.8-1,4.2c-0.2,1-0.5,2-0.7,3c-0.1,0.3-0.1,0.6-0.2,0.9c-0.1,0.4-0.2,0.8-0.3,1.3
			c-0.2,1-0.4,2-0.6,3c-0.1,0.4-0.1,0.7-0.2,1.1c-0.2,1.3-0.5,2.7-0.7,4c0,0.2-0.1,0.4-0.1,0.6c-0.1,0.8-0.2,1.7-0.4,2.5
			c0,0.2,0,0.4-0.1,0.6c-0.1,0.9-0.2,1.8-0.3,2.6c-0.1,0.6-0.1,1.3-0.2,1.9c-0.1,0.9-0.2,1.8-0.2,2.7c0,0.6-0.1,1.2-0.1,1.8
			c-0.1,1-0.1,2-0.1,3c0,0.5-0.1,1-0.1,1.5c0,1.5-0.1,3-0.1,4.4c0,15,2.7,27.9,7.6,38.2c2.7,5.7,6.1,10.7,10,14.8
			c0.9,0.9,1.8,1.8,2.7,2.6c1.4,1.2,2.8,2.4,4.4,3.4c1,0.7,2,1.4,3.1,2l30.6,17.8c-8.5-4.9-15.3-12.6-20.1-22.8
			c-4.9-10.3-7.6-23.2-7.6-38.2c0-1.5,0-2.9,0.1-4.4c0-0.5,0-1,0.1-1.5c0-1,0.1-2,0.1-3c0-0.6,0.1-1.2,0.1-1.8
			c0.1-0.9,0.1-1.8,0.2-2.7c0.1-0.6,0.1-1.3,0.2-1.9c0.1-0.9,0.2-1.8,0.3-2.6c0.1-1.1,0.3-2.1,0.4-3.2c0-0.2,0.1-0.4,0.1-0.6
			c0.2-1.3,0.4-2.6,0.6-4c0.1-0.4,0.1-0.7,0.2-1.1c0.2-1,0.4-2,0.6-3c0.1-0.4,0.2-0.8,0.3-1.3c0.3-1.3,0.5-2.6,0.8-3.9
			c0.3-1.4,0.7-2.8,1-4.2c0.1-0.5,0.2-0.9,0.4-1.4c0.2-0.9,0.5-1.8,0.8-2.8c0.3-0.9,0.5-1.9,0.8-2.8c0.2-0.6,0.4-1.2,0.5-1.8
			c0.3-1.1,0.7-2.1,1-3.2c0.2-0.5,0.3-1,0.5-1.5c0.3-0.8,0.5-1.6,0.8-2.4c0.2-0.7,0.5-1.4,0.7-2.1c0.3-0.8,0.6-1.6,0.9-2.4
			c0.3-0.7,0.5-1.4,0.8-2.1c0.2-0.5,0.4-1.1,0.6-1.6c0.4-0.9,0.7-1.8,1.1-2.7c0.2-0.6,0.5-1.2,0.8-1.8c0.4-0.9,0.8-1.9,1.2-2.8
			c0.6-1.4,1.2-2.8,1.9-4.1c0.2-0.5,0.4-0.9,0.6-1.4c0.4-0.9,0.9-1.8,1.3-2.7c0.3-0.6,0.6-1.2,0.9-1.8c0.4-0.8,0.8-1.6,1.2-2.4
			c0.3-0.6,0.6-1.2,1-1.9c0.4-0.8,0.8-1.5,1.2-2.3c0.3-0.6,0.7-1.3,1-1.9c0.4-0.7,0.8-1.5,1.2-2.2c0.4-0.6,0.7-1.3,1.1-1.9
			c0.4-0.7,0.8-1.4,1.3-2.2c0.4-0.7,0.8-1.3,1.2-2c0.4-0.7,0.9-1.4,1.3-2.1c0.4-0.7,0.8-1.3,1.2-2c0.4-0.7,0.9-1.3,1.3-2
			c0.5-0.7,0.9-1.4,1.4-2.1c0.4-0.7,0.9-1.3,1.3-1.9c0.5-0.7,0.9-1.4,1.4-2.1c0.4-0.6,0.9-1.2,1.3-1.9c0.6-0.8,1.2-1.6,1.8-2.4
			c0.4-0.6,0.8-1.1,1.2-1.7c0.6-0.8,1.2-1.7,1.9-2.5c0.4-0.5,0.8-1,1.2-1.5c1.1-1.4,2.3-2.9,3.4-4.3c0.2-0.2,0.3-0.4,0.5-0.6
			c1-1.2,2-2.4,3-3.6c0.6-0.7,1.2-1.4,1.8-2.1c0.3-0.4,0.6-0.7,0.9-1.1c1-1.1,2-2.2,2.9-3.2c0.8-0.8,1.6-1.6,2.3-2.5
			c0.3-0.3,0.5-0.5,0.8-0.8C312.6,577.4,313.2,576.8,313.7,576.3z"/>
		<g>
			<linearGradient id="SVGID_22_" gradientUnits="userSpaceOnUse" x1="251.1681" y1="665.3041" x2="371.1499" y2="665.3041">
				<stop  offset="0" style="stop-color:#D7D8D5"/>
				<stop  offset="1" style="stop-color:#F6F6F9"/>
			</linearGradient>
			<path class="st15" d="M346,551.2c13.6-7.9,24.7-1.5,24.7,14.1c0,15.6-10.9,34.7-24.5,42.5c-4.8,2.8-9.4,6.2-13.6,10.2
				c-4.3,4-8.3,8.6-12,13.5c-7.3,9.9-13.1,21.4-16.6,32.8c-2.3,7.6-3.6,15.2-3.5,22.6c0,5.5,0.8,10.3,2.1,14.5
				c1.3,4.2,3.3,7.7,5.8,10.4c5,5.6,12.1,8.2,20.3,7.5c5.5-0.5,11.5-2.5,17.9-6.2c13.6-7.9,24.7-1.5,24.7,14.1
				c0,15.6-10.9,34.7-24.5,42.5c-9.8,5.7-19.3,9.4-28.3,11.4c-9,2-17.4,2.1-25,0.6c-15.2-3-27.3-12.7-34.6-28.2
				c-4.9-10.3-7.6-23.2-7.6-38.2c0-11.3,1.4-23.1,4.2-35c2.8-11.9,6.8-23.9,11.9-35.5c10.2-23.4,24.6-45.5,41.7-63.7
				C320.4,569,332.9,558.7,346,551.2z"/>
		</g>
	</g>
	<linearGradient id="SVGID_23_" gradientUnits="userSpaceOnUse" x1="568.8326" y1="279.9932" x2="866.0586" y2="279.9932">
		<stop  offset="0" style="stop-color:#FFB438"/>
		<stop  offset="1" style="stop-color:#E97D08"/>
	</linearGradient>
	<path class="st16" d="M568.8,414c0,0,44.6-239.1,248.4-268.1c0,0,45.3-0.8,48.8,41.8c0,0-1.9,38.1-63.6,44.9
		C802.5,232.7,638.4,251,568.8,414z"/>
	<linearGradient id="SVGID_24_" gradientUnits="userSpaceOnUse" x1="162.546" y1="257.768" x2="459.772" y2="257.768">
		<stop  offset="0" style="stop-color:#FFB438"/>
		<stop  offset="1" style="stop-color:#E97D08"/>
	</linearGradient>
	<path class="st17" d="M459.8,391.8c0,0-44.6-239.1-248.4-268.1c0,0-45.3-0.8-48.8,41.8c0,0,1.9,38.1,63.6,44.9
		C226.1,210.5,390.2,228.8,459.8,391.8z"/>
	<linearGradient id="SVGID_25_" gradientUnits="userSpaceOnUse" x1="373.058" y1="145.9486" x2="484.1251" y2="145.9486">
		<stop  offset="0" style="stop-color:#FFB438"/>
		<stop  offset="1" style="stop-color:#E97D08"/>
	</linearGradient>
	<path class="st18" d="M434.3,47.2c18.6,20.3,63.6,84.2,45.8,213.9c0,0,7.5-116.1-79-164.8c-11.7-5.9-17.4-11.8-17.4-11.8
		c-8.1-9.3-18.9-27.8-0.5-47.6c0,0,11.3-13.2,36.5-0.9C419.7,36,428.1,40.8,434.3,47.2z"/>
	<linearGradient id="SVGID_26_" gradientUnits="userSpaceOnUse" x1="576.2581" y1="142.5518" x2="687.3251" y2="142.5518">
		<stop  offset="0" style="stop-color:#FFB438"/>
		<stop  offset="1" style="stop-color:#E97D08"/>
	</linearGradient>
	<path class="st19" d="M626.1,43.8c-18.6,20.3-63.6,84.2-45.8,213.9c0,0-7.5-116.1,79-164.8c11.7-5.9,17.4-11.8,17.4-11.8
		c8.1-9.3,18.9-27.8,0.5-47.6c0,0-11.3-13.2-36.5-0.9C640.7,32.6,632.3,37.4,626.1,43.8z"/>
</g>
</svg>
