<?xml version="1.0" encoding="utf-8"?>
<svg version="1.1" xmlns:xlink="http://www.w3.org/1999/xlink" width="39px" height="39px" xmlns="http://www.w3.org/2000/svg">
  <g transform="matrix(1 0 0 1 -1417 -11 )">
    <path d="M 1436.5 11  C 1447.42 11  1456 19.58  1456 30.5  C 1456 41.42  1447.42 50  1436.5 50  C 1425.58 50  1417 41.42  1417 30.5  C 1417 19.58  1425.58 11  1436.5 11  Z " fill-rule="nonzero" fill="#ffffff" stroke="none" />
    <path d="M 1436.5 11.5  C 1447.14 11.5  1455.5 19.86  1455.5 30.5  C 1455.5 41.14  1447.14 49.5  1436.5 49.5  C 1425.86 49.5  1417.5 41.14  1417.5 30.5  C 1417.5 19.86  1425.86 11.5  1436.5 11.5  Z " stroke-width="1" stroke="#797979" fill="none" />
  </g>
</svg>