<?xml version="1.0" encoding="utf-8"?>
<svg version="1.1" xmlns:xlink="http://www.w3.org/1999/xlink" width="56px" height="50px" xmlns="http://www.w3.org/2000/svg">
  <g transform="matrix(1 0 0 1 -90 -38 )">
    <path d="M 54.34375 27.40625  C 55.4479166666667 24.6145833333333  56 21.1458333333333  56 17  C 56 13.5416666666667  54.6770833333333 8.84375  52.03125 2.90625  C 51.96875 2.76041666666667  51.859375 2.51041666666667  51.703125 2.15625  C 51.546875 1.80208333333334  51.40625 1.48958333333333  51.28125 1.21875  C 51.15625 0.947916666666665  51.0208333333333 0.718750000000001  50.875 0.53125  C 50.625 0.177083333333333  50.3333333333333 0  50 0  C 49.6875 0  49.4427083333333 0.104166666666666  49.265625 0.312499999999999  C 49.0885416666667 0.520833333333337  49 0.78125  49 1.09375  C 49 1.28125  49.0260416666667 1.55729166666667  49.078125 1.921875  C 49.1302083333333 2.28645833333334  49.15625 2.53125  49.15625 2.65625  C 49.2604166666667 4.07291666666667  49.3125 5.35416666666667  49.3125 6.5  C 49.3125 8.60416666666666  49.1302083333333 10.4895833333333  48.765625 12.15625  C 48.4010416666667 13.8229166666667  47.8958333333333 15.265625  47.25 16.484375  C 46.6041666666667 17.703125  45.7708333333333 18.7552083333333  44.75 19.640625  C 43.7291666666667 20.5260416666667  42.6302083333333 21.25  41.453125 21.8125  C 40.2760416666667 22.375  38.890625 22.8177083333333  37.296875 23.140625  C 35.703125 23.4635416666667  34.0989583333333 23.6875  32.484375 23.8125  C 30.8697916666667 23.9375  29.0416666666667 24  27 24  L 20 24  L 20 16  C 20 15.4583333333333  19.8020833333333 14.9895833333333  19.40625 14.59375  C 19.0104166666667 14.1979166666667  18.5416666666667 14  18 14  C 17.4583333333333 14  16.9895833333333 14.1979166666667  16.59375 14.59375  L 0.59375 30.59375  C 0.197916666666667 30.9895833333333  0 31.4583333333333  0 32  C 0 32.5416666666667  0.197916666666667 33.0104166666667  0.59375 33.40625  L 16.59375 49.40625  C 16.9895833333333 49.8020833333333  17.4583333333333 50  18 50  C 18.5416666666667 50  19.0104166666667 49.8020833333333  19.40625 49.40625  C 19.8020833333333 49.0104166666667  20 48.5416666666667  20 48  L 20 40  L 27 40  C 41.8541666666667 40  50.96875 35.8020833333333  54.34375 27.40625  Z " fill-rule="nonzero" fill="#ffc500" stroke="none" transform="matrix(1 0 0 1 90 38 )" />
  </g>
</svg>