<svg width="93" height="167" viewBox="0 0 93 167" fill="none" xmlns="http://www.w3.org/2000/svg">
<path d="M37.6 87.4C37.6 87.4 17.1 98.2 15 105C10.7 118.7 31.9 160 31.9 160H37.9L36.9 106.7L65 85.1L37.6 87.4Z" fill="#3F4A70"/>
<path d="M55.1 88.4C55.1 88.4 35.4 99.9 31.4 106.1C24.8 116.1 29.5 126.7 37.2 153.8L42 106.7L62.4 88.4H55.1V88.4Z" fill="#374168"/>
<path d="M79.8 88.2C79.8 88.2 81.0999 102.8 78.5999 106.6C74.3999 113 45.9 118.7 45.9 118.7L37.9 160C37.9 160 28.6999 118.9 34.0999 106.7C37.0999 99.9 57.5999 88.3 57.5999 88.3H79.8V88.2Z" fill="#3F4970"/>
<path d="M37.9 160L37.5 162.4H31.8V160H37.9Z" fill="#FFC5A2"/>
<path d="M37.5001 162.4V166.2H25.1001V164.3L31.8002 162.4H37.5001Z" fill="#240900"/>
<path d="M46 32.2C46 32.2 21.7999 40.6 25.5999 77.7C25.5999 77.7 30.9999 87.9 42.5999 88.3C54.0999 88.7 79.8 88.3 79.8 88.3L77.9 63.6H92.3C92.3 63.6 91.4 33.1 59.9 30.1C59.8 30.1 56 30.1 46 32.2Z" fill="#4B9CF2"/>
<path d="M50.5001 28.4L47.6001 32.9C47.6001 32.9 54.7001 38.2 59.1001 32.9L55.2001 26.6C55.2001 26.6 50.5001 26.3 50.5001 28.4Z" fill="#FFC6A2"/>
<path d="M92.2 63.5C92.2 63.5 97.6 92.1 77.5 88.2L47.6 81.4L45 75.8L78.8 76L77.8 63.5H92.2V63.5Z" fill="#FFC6A2"/>
<path d="M22.5 88.4L12 65.9H44.5L56.3 88.4H22.5Z" fill="#51515A"/>
<path d="M77.8999 63.5C77.8999 63.5 75.4999 48.4 72.7999 46.4H72.3999C72.3999 46.4 76.5999 57.3 77.9999 64.4L77.8999 63.5Z" fill="#4974B0"/>
<path d="M36.7 65.9C36.7 65.9 37.9 48.9 44 47C44 47 40.8 49.7 36.7 65.9Z" fill="#4974B0"/>
<path d="M76.3 87.1L71.7 86.8L77.5 88.1C97.6 92.1 92.2 63.4 92.2 63.4H90.9C91 63.5 97.4 89.5 76.3 87.1Z" fill="#FFBD94"/>
<path d="M50 29.2C50 29.2 53.5 32.5 56 28.2L54.2 25L50.5 26.6L50 29.2Z" fill="#FFA05E"/>
<path d="M46.1 19.7C46.1 19.7 42.7 16.7 43.3 10.2L41.3 6.30002C41.3 6.30002 55.2 4.30002 56.1 6.30002C57 8.30002 55.8 17.8 55.8 17.8C55.8 17.8 45.6 18 46.1 19.7Z" fill="#484948"/>
<path d="M45.5 16.1C45.5 16.1 46.7 28.4 52.5 29.2C52.5 29.2 58.3 28.9 55.2 14L54.4 10.2L45.2 12.1L45.5 16.1Z" fill="#FFC5A2"/>
<path d="M28.6999 4.99999C24.6999 -0.200013 15.7 0.0999928 8.49997 5.59999C1.39997 11.1 -1.19998 19.8 2.80002 25C6.40002 29.6 13.9 29.9 20.5 26C20.5 26.1 20.5 26.1 20.5 26.1C22 27.8 24.5 26.5 24.5 26.5C22.7 26.2 23.2 25.3 22.8 24.4L22.9 24.3C30.2 18.8 32.6999 10.1 28.6999 4.99999Z" fill="#FF9820" stroke="#FE8A0E" stroke-miterlimit="10" stroke-linecap="round" stroke-linejoin="round"/>
<path d="M16.2999 13.4L16.8999 7.19996C16.8999 6.89996 16.3998 6.79997 16.1998 7.09997L8.8999 17.3L9.8999 17L15.0999 15.7C15.2999 15.6 15.5999 15.8 15.4999 16L14.8999 21.8C14.8999 22.1 15.3999 22.2 15.5999 21.9L22.4999 12.3C22.6999 12.1 22.3999 11.8 22.0999 11.9L16.2999 13.4Z" fill="white" stroke="#FE8A0E" stroke-miterlimit="10" stroke-linecap="round" stroke-linejoin="round"/>
</svg>
