<?xml version="1.0" encoding="utf-8"?>
<svg version="1.1" xmlns:xlink="http://www.w3.org/1999/xlink" width="16px" height="16px" xmlns="http://www.w3.org/2000/svg">
  <g transform="matrix(1 0 0 1 0 -235 )">
    <path d="M 13.21875 10.2011680726801  C 13.5173611111111 9.49859398658879  13.6666666666667 8.76314081765087  13.6666666666667 7.99480856586632  C 13.6666666666667 6.8803807051698  13.3645833333333 5.85939865887952  12.7604166666667 4.93186242699546  L 4.90625 12.7501622323167  C 5.85763888888889 13.36621241618  6.88888888888889 13.6742375081116  8 13.6742375081116  C 8.77083333333333 13.6742375081116  9.50520833333333 13.5236859182349  10.203125 13.2225827384815  C 10.9010416666667 12.9214795587281  11.5034722222222 12.5182781743457  12.0104166666667 12.0129785853342  C 12.5173611111111 11.5076789963227  12.9201388888889 10.9037421587714  13.21875 10.2011680726801  Z M 2.33333333333333 7.99480856586632  C 2.33333333333333 9.11615833874108  2.64236111111111 10.1509842093878  3.26041666666667 11.0992861778066  L 11.125 3.27060350421804  C 10.1875 2.64070949599827  9.14583333333333 2.32576249188838  8 2.32576249188838  C 6.97222222222222 2.32576249188838  6.02430555555556 2.57841228639412  5.15625 3.08371187540558  C 4.28819444444444 3.58901146441704  3.60069444444444 4.27774172615185  3.09375 5.14990266060999  C 2.58680555555556 6.02206359506814  2.33333333333333 6.97036556348691  2.33333333333333 7.99480856586632  Z M 15.3645833333333 4.88513951979234  C 15.7881944444444 5.87151200519143  16 6.90806835388276  16 7.99480856586632  C 16 9.08154877784988  15.7881944444444 10.1198356045858  15.3645833333333 11.109669046074  C 14.9409722222222 12.0995024875622  14.3732638888889 12.9508976854856  13.6614583333333 13.6638546398443  C 12.9496527777778 14.3768115942029  12.0989583333333 14.9444083928185  11.109375 15.3666450356911  C 10.1197916666667 15.7888816785637  9.08333333333333 16  8 16  C 6.91666666666667 16  5.88020833333333 15.7888816785637  4.890625 15.3666450356911  C 3.90104166666667 14.9444083928185  3.05034722222222 14.3768115942029  2.33854166666667 13.6638546398443  C 1.62673611111111 12.9508976854856  1.05902777777778 12.0995024875622  0.635416666666667 11.109669046074  C 0.211805555555556 10.1198356045858  0 9.08154877784988  0 7.99480856586632  C 0 6.90806835388276  0.211805555555556 5.87151200519143  0.635416666666667 4.88513951979234  C 1.05902777777778 3.89876703439325  1.62673611111111 3.04910231451438  2.33854166666667 2.33614536015574  C 3.05034722222222 1.6231884057971  3.90104166666667 1.05559160718148  4.890625 0.633354964308891  C 5.88020833333333 0.211118321436295  6.91666666666667 0  8 0  C 9.08333333333333 0  10.1197916666667 0.211118321436295  11.109375 0.633354964308891  C 12.0989583333333 1.05559160718148  12.9496527777778 1.6231884057971  13.6614583333333 2.33614536015574  C 14.3732638888889 3.04910231451438  14.9409722222222 3.89876703439325  15.3645833333333 4.88513951979234  Z " fill-rule="nonzero" fill="#adb1b6" stroke="none" transform="matrix(1 0 0 1 0 235 )" />
  </g>
</svg>