<?xml version="1.0" encoding="utf-8"?>
<svg version="1.1" xmlns:xlink="http://www.w3.org/1999/xlink" width="17px" height="16px" xmlns="http://www.w3.org/2000/svg">
  <g transform="matrix(1 0 0 1 -1807 -25 )">
    <path d="M 6.91709183673469 14.63125  C 6.90986394557823 14.6770833333333  6.91709183673469 14.7333333333333  6.93877551020408 14.8  C 6.93877551020408 14.8333333333333  6.94238945578231 14.9166666666667  6.94961734693878 15.05  C 6.95684523809524 15.1833333333333  6.95865221088435 15.29375  6.95503826530612 15.38125  C 6.95142431972789 15.46875  6.9405824829932 15.5666666666667  6.92251275510204 15.675  C 6.90444302721088 15.7833333333333  6.86830357142857 15.8645833333333  6.8140943877551 15.91875  C 6.75988520408163 15.9729166666667  6.68579931972789 16  6.59183673469388 16  L 3.12244897959184 16  C 2.26232993197279 16  1.52689200680272 15.6479166666667  0.916135204081633 14.94375  C 0.305378401360544 14.2395833333333  0 13.3916666666667  0 12.4  L 0 3.6  C 0 2.60833333333333  0.305378401360544 1.76041666666667  0.916135204081633 1.05625  C 1.52689200680272 0.352083333333331  2.26232993197279 0  3.12244897959184 0  L 6.59183673469388 0  C 6.68579931972789 0  6.7671130952381 0.0395833333333311  6.83577806122449 0.11875  C 6.90444302721088 0.197916666666666  6.93877551020408 0.291666666666666  6.93877551020408 0.4  C 6.93877551020408 0.433333333333332  6.94238945578231 0.516666666666666  6.94961734693878 0.65  C 6.95684523809524 0.783333333333331  6.95865221088435 0.893750000000001  6.95503826530612 0.981249999999999  C 6.95142431972789 1.06875  6.9405824829932 1.16666666666667  6.92251275510204 1.275  C 6.90444302721088 1.38333333333333  6.86830357142857 1.46458333333333  6.8140943877551 1.51875  C 6.75988520408163 1.57291666666667  6.68579931972789 1.6  6.59183673469388 1.6  L 3.12244897959184 1.6  C 2.64540816326531 1.6  2.23703231292517 1.79583333333333  1.89732142857143 2.1875  C 1.55761054421769 2.57916666666667  1.38775510204082 3.05  1.38775510204082 3.6  L 1.38775510204082 12.4  C 1.38775510204082 12.95  1.55761054421769 13.4208333333333  1.89732142857143 13.8125  C 2.23703231292517 14.2041666666667  2.64540816326531 14.4  3.12244897959184 14.4  L 6.24489795918367 14.4  L 6.36415816326531 14.4  L 6.50510204081633 14.4  C 6.50510204081633 14.4  6.54666241496599 14.4041666666667  6.62978316326531 14.4125  C 6.71290391156463 14.4208333333333  6.75446428571429 14.4333333333333  6.75446428571429 14.45  C 6.75446428571429 14.4666666666667  6.78337585034014 14.4895833333333  6.84119897959184 14.51875  C 6.89902210884354 14.5479166666667  6.92431972789116 14.5854166666667  6.91709183673469 14.63125  Z M 16.7940051020408 7.4375  C 16.9313350340136 7.59583333333333  17 7.78333333333333  17 8  C 17 8.21666666666667  16.9313350340136 8.40416666666667  16.7940051020408 8.5625  L 10.8960459183673 15.3625  C 10.7587159863946 15.5208333333333  10.5960884353742 15.6  10.4081632653061 15.6  C 10.2202380952381 15.6  10.0576105442177 15.5208333333333  9.9202806122449 15.3625  C 9.78295068027211 15.2041666666667  9.71428571428571 15.0166666666667  9.71428571428571 14.8  L 9.71428571428571 11.2  L 4.85714285714286 11.2  C 4.66921768707483 11.2  4.50659013605442 11.1208333333333  4.36926020408163 10.9625  C 4.23193027210884 10.8041666666667  4.16326530612245 10.6166666666667  4.16326530612245 10.4  L 4.16326530612245 5.6  C 4.16326530612245 5.38333333333333  4.23193027210884 5.19583333333333  4.36926020408163 5.0375  C 4.50659013605442 4.87916666666667  4.66921768707483 4.8  4.85714285714286 4.8  L 9.71428571428571 4.8  L 9.71428571428571 1.2  C 9.71428571428571 0.983333333333331  9.78295068027211 0.795833333333331  9.9202806122449 0.637499999999999  C 10.0576105442177 0.479166666666666  10.2202380952381 0.4  10.4081632653061 0.4  C 10.5960884353742 0.4  10.7587159863946 0.479166666666666  10.8960459183673 0.637499999999999  L 16.7940051020408 7.4375  Z " fill-rule="nonzero" fill="#ffffff" stroke="none" transform="matrix(1 0 0 1 1807 25 )" />
  </g>
</svg>