<?xml version="1.0" encoding="utf-8"?>
<svg version="1.1" xmlns:xlink="http://www.w3.org/1999/xlink" width="76px" height="70px" xmlns="http://www.w3.org/2000/svg">
  <defs>
    <filter x="1595px" y="401px" width="76px" height="70px" filterUnits="userSpaceOnUse" id="filter37">
      <feOffset dx="5" dy="-10" in="SourceAlpha" result="shadowOffsetInner" />
      <feGaussianBlur stdDeviation="5" in="shadowOffsetInner" result="shadowGaussian" />
      <feComposite in2="shadowGaussian" operator="atop" in="SourceAlpha" result="shadowComposite" />
      <feColorMatrix type="matrix" values="0 0 0 0 0  0 0 0 0 0  0 0 0 0 0  0 0 0 0.23921568627451 0  " in="shadowComposite" />
    </filter>
    <g id="widget38">
      <path d="M 54.34375 22.59375  C 55.4479166666667 25.3854166666667  56 28.8541666666667  56 33  C 56 36.4583333333333  54.6770833333333 41.15625  52.03125 47.09375  C 51.96875 47.2395833333333  51.859375 47.4895833333333  51.703125 47.84375  C 51.546875 48.1979166666667  51.40625 48.5104166666667  51.28125 48.78125  C 51.15625 49.0520833333333  51.0208333333333 49.28125  50.875 49.46875  C 50.625 49.8229166666667  50.3333333333333 50  50 50  C 49.6875 50  49.4427083333333 49.8958333333333  49.265625 49.6875  C 49.0885416666667 49.4791666666667  49 49.21875  49 48.90625  C 49 48.71875  49.0260416666667 48.4427083333333  49.078125 48.078125  C 49.1302083333333 47.7135416666667  49.15625 47.46875  49.15625 47.34375  C 49.2604166666667 45.9270833333333  49.3125 44.6458333333333  49.3125 43.5  C 49.3125 41.3958333333333  49.1302083333333 39.5104166666667  48.765625 37.84375  C 48.4010416666667 36.1770833333333  47.8958333333333 34.734375  47.25 33.515625  C 46.6041666666667 32.296875  45.7708333333333 31.2447916666667  44.75 30.359375  C 43.7291666666667 29.4739583333333  42.6302083333333 28.75  41.453125 28.1875  C 40.2760416666667 27.625  38.890625 27.1822916666667  37.296875 26.859375  C 35.703125 26.5364583333333  34.0989583333333 26.3125  32.484375 26.1875  C 30.8697916666667 26.0625  29.0416666666667 26  27 26  L 20 26  L 20 34  C 20 34.5416666666667  19.8020833333333 35.0104166666667  19.40625 35.40625  C 19.0104166666667 35.8020833333333  18.5416666666667 36  18 36  C 17.4583333333333 36  16.9895833333333 35.8020833333333  16.59375 35.40625  L 0.59375 19.40625  C 0.197916666666667 19.0104166666667  0 18.5416666666667  0 18  C 0 17.4583333333333  0.197916666666667 16.9895833333333  0.59375 16.59375  L 16.59375 0.593749999999998  C 16.9895833333333 0.197916666666664  17.4583333333333 0  18 0  C 18.5416666666667 0  19.0104166666667 0.197916666666664  19.40625 0.593749999999998  C 19.8020833333333 0.989583333333327  20 1.45833333333333  20 2  L 20 10  L 27 10  C 41.8541666666667 10  50.96875 14.1979166666667  54.34375 22.59375  Z " fill-rule="nonzero" fill="#000000" stroke="none" transform="matrix(1 0 0 1 1600 421 )" />
    </g>
  </defs>
  <g transform="matrix(1 0 0 1 -1595 -401 )">
    <use xlink:href="#widget38" filter="url(#filter37)" />
    <use xlink:href="#widget38" />
  </g>
</svg>