<?xml version="1.0" encoding="utf-8"?>
<svg version="1.1" xmlns:xlink="http://www.w3.org/1999/xlink" width="16px" height="20px" xmlns="http://www.w3.org/2000/svg">
  <g transform="matrix(1 0 0 1 -1786 -710 )">
    <path d="M 15.89375 14.4596354166667  C 15.9645833333333 15.1150173611111  16 15.8116319444444  16 16.5494791666667  C 16 17.4956597222222  15.7395833333333 18.3072916666667  15.21875 18.984375  C 14.6979166666667 19.6614583333333  14.0708333333333 20  13.3375 20  L 2.6625 20  C 1.92916666666667 20  1.30208333333333 19.6614583333333  0.78125 18.984375  C 0.260416666666667 18.3072916666667  0 17.4956597222222  0 16.5494791666667  C 0 15.8116319444444  0.0354166666666667 15.1150173611111  0.10625 14.4596354166667  C 0.177083333333333 13.8042534722222  0.308333333333333 13.14453125  0.5 12.48046875  C 0.691666666666667 11.81640625  0.935416666666667 11.2478298611111  1.23125 10.7747395833333  C 1.52708333333333 10.3016493055556  1.91875 9.91536458333333  2.40625 9.61588541666667  C 2.89375 9.31640625  3.45416666666667 9.16666666666667  4.0875 9.16666666666667  C 5.17916666666667 10.2777777777778  6.48333333333333 10.8333333333333  8 10.8333333333333  C 9.51666666666667 10.8333333333333  10.8208333333333 10.2777777777778  11.9125 9.16666666666667  C 12.5458333333333 9.16666666666667  13.10625 9.31640625  13.59375 9.61588541666667  C 14.08125 9.91536458333333  14.4729166666667 10.3016493055556  14.76875 10.7747395833333  C 15.0645833333333 11.2478298611111  15.3083333333333 11.81640625  15.5 12.48046875  C 15.6916666666667 13.14453125  15.8229166666667 13.8042534722222  15.89375 14.4596354166667  Z M 11.39375 1.46484375  C 12.33125 2.44140625  12.8 3.61979166666667  12.8 5  C 12.8 6.38020833333333  12.33125 7.55859375  11.39375 8.53515625  C 10.45625 9.51171875  9.325 10  8 10  C 6.675 10  5.54375 9.51171875  4.60625 8.53515625  C 3.66875 7.55859375  3.2 6.38020833333333  3.2 5  C 3.2 3.61979166666667  3.66875 2.44140625  4.60625 1.46484375  C 5.54375 0.48828125  6.675 0  8 0  C 9.325 0  10.45625 0.48828125  11.39375 1.46484375  Z " fill-rule="nonzero" fill="#000000" stroke="none" transform="matrix(1 0 0 1 1786 710 )" />
  </g>
</svg>