<?xml version="1.0" encoding="utf-8"?>
<svg version="1.1" xmlns:xlink="http://www.w3.org/1999/xlink" width="8px" height="5px" xmlns="http://www.w3.org/2000/svg">
  <g transform="matrix(1 0 0 1 -1784 31 )">
    <path d="M 8 3.89130434782609  C 8 3.97665056360709  7.96856906534326 4.04991948470209  7.90570719602978 4.11111111111111  L 7.0818858560794 4.90821256038647  C 7.01902398676592 4.96940418679549  6.94458229942101 5  6.85856079404467 5  C 6.77253928866832 5  6.69809760132341 4.96940418679549  6.63523573200993 4.90821256038647  L 4 2.34299516908213  L 1.36476426799007 4.90821256038647  C 1.30190239867659 4.96940418679549  1.22746071133168 5  1.14143920595533 5  C 1.05541770057899 5  0.980976013234078 4.96940418679549  0.918114143920596 4.90821256038647  L 0.0942928039702233 4.11111111111111  C 0.0314309346567412 4.04991948470209  0 3.97665056360709  0 3.89130434782609  C 0 3.80595813204509  0.0314309346567412 3.73268921095008  0.0942928039702233 3.67149758454106  L 3.77667493796526 0.0917874396135265  C 3.83953680727874 0.0305958132045087  3.91397849462366 0  4 0  C 4.08602150537634 0  4.16046319272126 0.0305958132045087  4.22332506203474 0.0917874396135265  L 7.90570719602978 3.67149758454106  C 7.96856906534326 3.73268921095008  8 3.80595813204509  8 3.89130434782609  Z " fill-rule="nonzero" fill="#000000" stroke="none" transform="matrix(1 0 0 1 1784 -31 )" />
  </g>
</svg>