<?xml version="1.0" encoding="utf-8"?>
<svg version="1.1" xmlns:xlink="http://www.w3.org/1999/xlink" width="15px" height="15px" xmlns="http://www.w3.org/2000/svg">
  <g transform="matrix(1 0 0 1 -9 -154 )">
    <path d="M 12.392578125 9.56359506813757  C 12.6725260416667 8.904931862427  12.8125 8.2154445165477  12.8125 7.49513303049967  C 12.8125 6.45035691109669  12.529296875 5.49318624269955  11.962890625 4.62362102530824  L 4.599609375 11.9532770927969  C 5.49153645833333 12.5308241401687  6.45833333333333 12.8195976638546  7.5 12.8195976638546  C 8.22265625 12.8195976638546  8.9111328125 12.6784555483452  9.5654296875 12.3961713173264  C 10.2197265625 12.1138870863076  10.7845052083333 11.7358857884491  11.259765625 11.2621674237508  C 11.7350260416667 10.7884490590526  12.1126302083333 10.2222582738481  12.392578125 9.56359506813757  Z M 2.1875 7.49513303049967  C 2.1875 8.54639844256976  2.47721354166667 9.5165476963011  3.056640625 10.4055807916937  L 10.4296875 3.06619078520441  C 9.55078125 2.47566515249838  8.57421875 2.18040233614536  7.5 2.18040233614536  C 6.53645833333333 2.18040233614536  5.64778645833333 2.41726151849448  4.833984375 2.89097988319273  C 4.02018229166667 3.36469824789098  3.37565104166667 4.01038286826736  2.900390625 4.82803374432187  C 2.42513020833333 5.64568462037638  2.1875 6.53471771576898  2.1875 7.49513303049967  Z M 14.404296875 4.57981829980532  C 14.8014322916667 5.50454250486697  15 6.47631408176509  15 7.49513303049967  C 15 8.51395197923426  14.8014322916667 9.48734587929916  14.404296875 10.4153147306944  C 14.0071614583333 11.3432835820896  13.4749348958333 12.1414665801428  12.8076171875 12.809863724854  C 12.1402994791667 13.4782608695652  11.3427734375 14.0103828682674  10.4150390625 14.4062297209604  C 9.4873046875 14.8020765736535  8.515625 15  7.5 15  C 6.484375 15  5.5126953125 14.8020765736535  4.5849609375 14.4062297209604  C 3.6572265625 14.0103828682674  2.85970052083333 13.4782608695652  2.1923828125 12.809863724854  C 1.52506510416667 12.1414665801428  0.992838541666667 11.3432835820896  0.595703125 10.4153147306944  C 0.198567708333333 9.48734587929916  0 8.51395197923426  0 7.49513303049967  C 0 6.47631408176509  0.198567708333333 5.50454250486697  0.595703125 4.57981829980532  C 0.992838541666667 3.65509409474367  1.52506510416667 2.85853341985723  2.1923828125 2.19013627514601  C 2.85970052083333 1.52173913043478  3.6572265625 0.989617131732639  4.5849609375 0.593770279039585  C 5.5126953125 0.197923426346527  6.484375 0  7.5 0  C 8.515625 0  9.4873046875 0.197923426346527  10.4150390625 0.593770279039585  C 11.3427734375 0.989617131732639  12.1402994791667 1.52173913043478  12.8076171875 2.19013627514601  C 13.4749348958333 2.85853341985723  14.0071614583333 3.65509409474367  14.404296875 4.57981829980532  Z " fill-rule="nonzero" fill="#ffffff" stroke="none" transform="matrix(1 0 0 1 9 154 )" />
  </g>
</svg>